<?xml version="1.0" encoding="utf-8"?>
<!-- Generator: Adobe Illustrator 19.0.1, SVG Export Plug-In . SVG Version: 6.00 Build 0)  -->
<!DOCTYPE svg PUBLIC "-//W3C//DTD SVG 1.1//EN" "http://www.w3.org/Graphics/SVG/1.1/DTD/svg11.dtd">
<svg version="1.1" id="Calque_1" xmlns="http://www.w3.org/2000/svg" xmlns:xlink="http://www.w3.org/1999/xlink" x="0px" y="0px"
	 viewBox="0 0 30.2 36.4" enable-background="new 0 0 30.2 36.4" xml:space="preserve">
<g>
	<g>
		<path fill="#EEACA4" d="M0.5,0.5h29.2v11.2c0,10.1-5.6,19.5-14.6,24.2c-9-4.7-14.6-14-14.6-24.2V0.5z"/>
		<path fill="#DD6B54" d="M15.1,36.4c-0.1,0-0.2,0-0.2-0.1C5.7,31.5,0,22,0,11.7V0.5C0,0.2,0.2,0,0.5,0h29.2c0.3,0,0.5,0.2,0.5,0.5
			v11.2c0,10.4-5.7,19.8-14.9,24.6C15.3,36.3,15.2,36.4,15.1,36.4z M1,1v10.7c0,9.9,5.4,18.9,14.1,23.6c8.7-4.7,14.1-13.7,14.1-23.6
			V1H1z"/>
	</g>
	<g>
		<line fill="#EEACA4" x1="0.4" y1="5.4" x2="29.7" y2="5.4"/>
		<rect x="0.4" y="4.9" fill="#DD6B54" width="29.3" height="1"/>
	</g>
</g>
<g>
	<g>
		<rect x="10.3" y="21.9" fill="#FFFFFF" width="3.7" height="2.2"/>
		<path fill="#DD6B54" d="M14,24.4h-3.7c-0.1,0-0.2-0.1-0.2-0.2v-2.2c0-0.1,0.1-0.2,0.2-0.2H14c0.1,0,0.2,0.1,0.2,0.2v2.2
			C14.2,24.2,14.1,24.4,14,24.4z M10.5,23.9h3.2v-1.7h-3.2V23.9z"/>
	</g>
	<g>
		<rect x="8" y="9.2" fill="#FFFFFF" width="2.2" height="2.2"/>
		<path fill="#DD6B54" d="M10.3,11.7H8c-0.1,0-0.2-0.1-0.2-0.2V9.2C7.8,9,7.9,8.9,8,8.9h2.2c0.1,0,0.2,0.1,0.2,0.2v2.2
			C10.5,11.6,10.4,11.7,10.3,11.7z M8.3,11.2H10V9.4H8.3V11.2z"/>
	</g>
	<g>
		<rect x="16.2" y="21.9" fill="#FFFFFF" width="3.7" height="2.2"/>
		<path fill="#DD6B54" d="M20,24.4h-3.7c-0.1,0-0.2-0.1-0.2-0.2v-2.2c0-0.1,0.1-0.2,0.2-0.2H20c0.1,0,0.2,0.1,0.2,0.2v2.2
			C20.2,24.2,20.1,24.4,20,24.4z M16.5,23.9h3.2v-1.7h-3.2V23.9z"/>
	</g>
	<g>
		<path fill="#FFFFFF" d="M23.7,16.6v-2.2h-1.5v-1.5H20v-1.5h-2.2v1.5h-5.2v-1.5h-2.2v1.5H8v1.5H6.5v2.2H4.3v5.2h2.2v-3h2.2v3h1.5
			v-1.5H20v1.5h1.5v-3h2.2v3h2.2v-5.2H23.7z M12.5,16.6h-2.2v-2.2h2.2V16.6z M20,16.6h-2.2v-2.2H20V16.6z"/>
		<path fill="#DD6B54" d="M25.9,22.1h-2.2c-0.1,0-0.2-0.1-0.2-0.2v-2.7h-1.7v2.7c0,0.1-0.1,0.2-0.2,0.2H20c-0.1,0-0.2-0.1-0.2-0.2
			v-1.2h-9.2v1.2c0,0.1-0.1,0.2-0.2,0.2H8.8c-0.1,0-0.2-0.1-0.2-0.2v-2.7H6.8v2.7c0,0.1-0.1,0.2-0.2,0.2H4.3C4.1,22.1,4,22,4,21.9
			v-5.2c0-0.1,0.1-0.2,0.2-0.2h2v-2c0-0.1,0.1-0.2,0.2-0.2h1.2v-1.2c0-0.1,0.1-0.2,0.2-0.2h2v-1.2c0-0.1,0.1-0.2,0.2-0.2h2.2
			c0.1,0,0.2,0.1,0.2,0.2v1.2h4.7v-1.2c0-0.1,0.1-0.2,0.2-0.2H20c0.1,0,0.2,0.1,0.2,0.2v1.2h2c0.1,0,0.2,0.1,0.2,0.2v1.2h1.2
			c0.1,0,0.2,0.1,0.2,0.2v2h2c0.1,0,0.2,0.1,0.2,0.2v5.2C26.2,22,26.1,22.1,25.9,22.1z M23.9,21.6h1.7v-4.7h-2
			c-0.1,0-0.2-0.1-0.2-0.2v-2h-1.2c-0.1,0-0.2-0.1-0.2-0.2v-1.2h-2c-0.1,0-0.2-0.1-0.2-0.2v-1.2H18v1.2c0,0.1-0.1,0.2-0.2,0.2h-5.2
			c-0.1,0-0.2-0.1-0.2-0.2v-1.2h-1.7v1.2c0,0.1-0.1,0.2-0.2,0.2h-2v1.2c0,0.1-0.1,0.2-0.2,0.2H6.8v2c0,0.1-0.1,0.2-0.2,0.2h-2v4.7
			h1.7v-2.7c0-0.1,0.1-0.2,0.2-0.2h2.2c0.1,0,0.2,0.1,0.2,0.2v2.7h1v-1.2c0-0.1,0.1-0.2,0.2-0.2H20c0.1,0,0.2,0.1,0.2,0.2v1.2h1
			v-2.7c0-0.1,0.1-0.2,0.2-0.2h2.2c0.1,0,0.2,0.1,0.2,0.2V21.6z M20,16.9h-2.2c-0.1,0-0.2-0.1-0.2-0.2v-2.2c0-0.1,0.1-0.2,0.2-0.2
			H20c0.1,0,0.2,0.1,0.2,0.2v2.2C20.2,16.8,20.1,16.9,20,16.9z M18,16.4h1.7v-1.7H18V16.4z M12.5,16.9h-2.2c-0.1,0-0.2-0.1-0.2-0.2
			v-2.2c0-0.1,0.1-0.2,0.2-0.2h2.2c0.1,0,0.2,0.1,0.2,0.2v2.2C12.7,16.8,12.6,16.9,12.5,16.9z M10.5,16.4h1.7v-1.7h-1.7V16.4z"/>
	</g>
	<g>
		<rect x="20" y="9.2" fill="#FFFFFF" width="2.2" height="2.2"/>
		<path fill="#DD6B54" d="M22.2,11.7H20c-0.1,0-0.2-0.1-0.2-0.2V9.2c0-0.1,0.1-0.2,0.2-0.2h2.2c0.1,0,0.2,0.1,0.2,0.2v2.2
			C22.4,11.6,22.3,11.7,22.2,11.7z M20.2,11.2h1.7V9.4h-1.7V11.2z"/>
	</g>
</g>
</svg>
